# xmcd CD database file
#
# Track frame offsets:
#	150
#	16553
#	28799
#	38794
#	51611
#	64144
#	83531
#	94457
#	112222
#	124588
#	131844
#	142128
#	188860
#	203608
#	225637
#	241262
#	252468
#	270551
#	277866
#
# Disc length: 3941 seconds
#
# Revision: 1
# Processed by: cddbd v1.5.2PL0 Copyright (c) Steve Scherf et al.
# Submitted via: CDex 1.70beta2
#
DISCID=130f6313
DTITLE=Davy Graham - Anthology - Lost Tapes 1961-2007 - Les Cousins - D2
DYEAR=1965
DGENRE=Folk
TTITLE0=Better Git It in Your Soul
TTITLE1=Davy's Train Blues
TTITLE2=Sermonette
TTITLE3=Maajun
TTITLE4=I'm Ready
TTITLE5=Rock Me Baby
TTITLE6=Neighbour, Neighbour
TTITLE7=Louisiana Blues
TTITLE8=Freight Train
TTITLE9=Anji 
TTITLE10=Anji's Greek Cousin
TTITLE11=Blues Raga
TTITLE12=When Did You Leave Heaven?
TTITLE13=Bruton Town
TTITLE14=Tristano
TTITLE15=Rock Me
TTITLE16=Good Morning Blues
TTITLE17=Hornpipe for a Harpsichord
TTITLE18=How Come You Love Me Like You Do?
EXTD=YEAR: 1965
EXTT0=
EXTT1=
EXTT2=
EXTT3=
EXTT4=
EXTT5=
EXTT6=
EXTT7=
EXTT8=
EXTT9=
EXTT10=
EXTT11=
EXTT12=
EXTT13=
EXTT14=
EXTT15=
EXTT16=
EXTT17=
EXTT18=
PLAYORDER=
